<?xml version="1.0" encoding="utf-8"?>
<!-- Generator: Adobe Illustrator 21.0.0, SVG Export Plug-In . SVG Version: 6.00 Build 0)  -->
<svg version="1.1" id="Capa_1" xmlns="http://www.w3.org/2000/svg" xmlns:xlink="http://www.w3.org/1999/xlink" x="0px" y="0px"
	 viewBox="0 0 379 276" style="enable-background:new 0 0 379 276;" xml:space="preserve">
<style type="text/css">
	.st0{opacity:0.5;}
	.st1{clip-path:url(#SVGID_2_);}
	.st2{fill:#FFFFFF;}
	.st3{fill:#C9C9C9;}
	.st4{clip-path:url(#SVGID_4_);}
	.st5{clip-path:url(#SVGID_6_);}
</style>
<g class="st0">
	<defs>
		<path id="SVGID_1_" class="st0" d="M136,232.4H34c-6.6,0-12-5.4-12-12V54.6c0-6.6,5.4-12,12-12h102c6.6,0,12,5.4,12,12v165.8
			C148,227,142.6,232.4,136,232.4z"/>
	</defs>
	<use xlink:href="#SVGID_1_"  style="overflow:visible;fill:#FFFFFF;"/>
	<clipPath id="SVGID_2_">
		<use xlink:href="#SVGID_1_"  style="overflow:visible;"/>
	</clipPath>
	<g class="st1">
		<g>
			<path class="st2" d="M39.5,232c-10.6,0-19.2-8.6-19.2-19.2c0-10.6,8.6-19.2,19.2-19.2c8.1,0,15.4,5.1,18.1,12.8l0.3,0.8
				l90.2-13.1v23.2l-27.8,4.1l4.4-12l-66.8,9l-0.2,0.6C55.1,226.7,47.8,232,39.5,232z"/>
			<path class="st3" d="M39.5,194.6c7.7,0,14.6,4.9,17.2,12.1l0.5,1.5l1.6-0.2l88.2-12.8v21.2l-25.3,3.7l3.3-8.8l1.1-3.1l-3.3,0.4
				l-64.5,8.7l-1.2,0.2l-0.4,1.2C54.3,226,47.3,231,39.5,231c-10,0-18.2-8.2-18.2-18.2S29.5,194.6,39.5,194.6 M39.5,192.6
				c-11.2,0-20.2,9-20.2,20.2c0,11.2,9,20.2,20.2,20.2c8.9,0,16.4-5.7,19.1-13.7l64.5-8.7l-4.4,12l30.3-4.4v-25.3L58.6,206
				C55.8,198.2,48.3,192.6,39.5,192.6L39.5,192.6z"/>
		</g>
		<g>
			<polygon class="st2" points="60.4,221.1 120.4,213.1 116.2,224 54.6,232.7 			"/>
			<path class="st3" d="M119.6,213.7l-3.8,9.9L55.5,232l5.2-10.5L119.6,213.7 M121.1,212.5L60,220.7l-6.3,12.6l62.8-8.8L121.1,212.5
				L121.1,212.5z"/>
		</g>
		<g>
			<circle class="st2" cx="117.4" cy="172" r="6.1"/>
			<path class="st3" d="M117.4,166.4c3.1,0,5.6,2.5,5.6,5.6c0,3.1-2.5,5.6-5.6,5.6s-5.6-2.5-5.6-5.6
				C111.8,168.9,114.3,166.4,117.4,166.4 M117.4,165.4c-3.7,0-6.6,3-6.6,6.6c0,3.7,3,6.6,6.6,6.6c3.7,0,6.6-3,6.6-6.6
				C124,168.3,121.1,165.4,117.4,165.4L117.4,165.4z"/>
		</g>
		<g>
			<circle class="st2" cx="136.7" cy="169.7" r="6.1"/>
			<path class="st3" d="M136.7,164.1c3.1,0,5.6,2.5,5.6,5.6c0,3.1-2.5,5.6-5.6,5.6s-5.6-2.5-5.6-5.6
				C131,166.6,133.6,164.1,136.7,164.1 M136.7,163.1c-3.7,0-6.6,3-6.6,6.6c0,3.7,3,6.6,6.6,6.6c3.7,0,6.6-3,6.6-6.6
				C143.3,166,140.3,163.1,136.7,163.1L136.7,163.1z"/>
		</g>
		<g>
			<path class="st2" d="M39.6,228.9c-9,0-16.2-7.3-16.2-16.2c0-9,7.3-16.2,16.2-16.2c9,0,16.2,7.3,16.2,16.2
				C55.9,221.6,48.6,228.9,39.6,228.9z"/>
			<path class="st3" d="M39.6,196.9c8.7,0,15.7,7.1,15.7,15.7c0,8.7-7.1,15.7-15.7,15.7s-15.7-7.1-15.7-15.7
				C23.9,204,30.9,196.9,39.6,196.9 M39.6,195.9c-9.2,0-16.7,7.5-16.7,16.7c0,9.2,7.5,16.7,16.7,16.7s16.7-7.5,16.7-16.7
				C56.4,203.4,48.9,195.9,39.6,195.9L39.6,195.9z"/>
		</g>
		<g>
			<polygon class="st2" points="60.6,200.8 60.4,196 63.8,192.3 83.1,189.8 86.3,192.3 86.4,196.7 84.9,198.7 62.2,201.7 			"/>
			<path class="st3" d="M82.9,190.3l2.9,2.2l0.1,4l-1.3,1.7l-22.3,3l-1.2-0.7l-0.2-4.3l3.2-3.5L82.9,190.3 M83.2,189.2l-19.7,2.6
				l-3.7,4.1l0.2,5.3l2,1.1l23-3.1l1.8-2.3l-0.2-4.9L83.2,189.2L83.2,189.2z"/>
		</g>
		<g>
			<polygon class="st2" points="88.8,196.9 88.7,192.1 92,188.5 111.3,185.8 114.3,188.4 114.4,192.7 112.9,194.6 90.3,197.7 			"/>
			<path class="st3" d="M111.1,186.3l2.7,2.3l0.1,3.9l-1.3,1.6l-22.2,3.1l-1.1-0.6l-0.1-4.3l3-3.3L111.1,186.3 M111.4,185.3
				L91.8,188l-3.5,3.9l0.1,5.3l2,1.1l22.9-3.2l1.7-2.2l-0.1-4.7L111.4,185.3L111.4,185.3z"/>
		</g>
		<g>
			<polygon class="st2" points="117.1,192.9 117,188.3 120.4,184.6 139.4,181.9 142.6,184.7 142.7,188.8 141.1,190.6 118.6,193.8 
							"/>
			<path class="st3" d="M139.2,182.4l2.8,2.5l0.1,3.8l-1.3,1.5l-22.2,3.1l-1.1-0.7l-0.1-4.2l3.1-3.4L139.2,182.4 M139.6,181.4
				l-19.4,2.8l-3.6,4l0.1,5.1l1.9,1.1l22.9-3.2l1.8-2.1l-0.1-4.6L139.6,181.4L139.6,181.4z"/>
		</g>
	</g>
	<use xlink:href="#SVGID_1_"  style="overflow:visible;fill:none;stroke:#C9C9C9;stroke-width:5;stroke-miterlimit:10;"/>
</g>
<g class="st0">
	<defs>
		<path id="SVGID_3_" class="st0" d="M343,232.4H241c-6.6,0-12-5.4-12-12V54.6c0-6.6,5.4-12,12-12h102c6.6,0,12,5.4,12,12v165.8
			C355,227,349.6,232.4,343,232.4z"/>
	</defs>
	<use xlink:href="#SVGID_3_"  style="overflow:visible;fill:#FFFFFF;"/>
	<clipPath id="SVGID_4_">
		<use xlink:href="#SVGID_3_"  style="overflow:visible;"/>
	</clipPath>
	<g class="st4">
		<g>
			<path class="st2" d="M246.5,232c-10.6,0-19.2-8.6-19.2-19.2c0-10.6,8.6-19.2,19.2-19.2c8.1,0,15.4,5.1,18.1,12.8l0.3,0.8
				l90.2-13.1v23.2l-27.8,4.1l4.4-12l-66.8,9l-0.2,0.6C262.1,226.7,254.8,232,246.5,232z"/>
			<path class="st3" d="M246.5,194.6c7.7,0,14.6,4.9,17.2,12.1l0.5,1.5l1.6-0.2l88.2-12.8v21.2l-25.3,3.7l3.3-8.8l1.1-3.1l-3.3,0.4
				l-64.5,8.7l-1.2,0.2l-0.4,1.2c-2.5,7.4-9.4,12.4-17.2,12.4c-10,0-18.2-8.2-18.2-18.2S236.5,194.6,246.5,194.6 M246.5,192.6
				c-11.2,0-20.2,9-20.2,20.2c0,11.2,9,20.2,20.2,20.2c8.9,0,16.4-5.7,19.1-13.7l64.5-8.7l-4.4,12l30.3-4.4v-25.3L265.6,206
				C262.8,198.2,255.3,192.6,246.5,192.6L246.5,192.6z"/>
		</g>
		<g>
			<polygon class="st2" points="267.4,221.1 327.4,213.1 323.2,224 261.6,232.7 			"/>
			<path class="st3" d="M326.6,213.7l-3.8,9.9l-60.4,8.5l5.2-10.5L326.6,213.7 M328.1,212.5l-61.1,8.2l-6.3,12.6l62.8-8.8
				L328.1,212.5L328.1,212.5z"/>
		</g>
		<g>
			<circle class="st2" cx="324.4" cy="172" r="6.1"/>
			<path class="st3" d="M324.4,166.4c3.1,0,5.6,2.5,5.6,5.6c0,3.1-2.5,5.6-5.6,5.6c-3.1,0-5.6-2.5-5.6-5.6
				C318.8,168.9,321.3,166.4,324.4,166.4 M324.4,165.4c-3.7,0-6.6,3-6.6,6.6c0,3.7,3,6.6,6.6,6.6c3.7,0,6.6-3,6.6-6.6
				C331,168.3,328.1,165.4,324.4,165.4L324.4,165.4z"/>
		</g>
		<g>
			<circle class="st2" cx="343.7" cy="169.7" r="6.1"/>
			<path class="st3" d="M343.7,164.1c3.1,0,5.6,2.5,5.6,5.6c0,3.1-2.5,5.6-5.6,5.6c-3.1,0-5.6-2.5-5.6-5.6
				C338,166.6,340.6,164.1,343.7,164.1 M343.7,163.1c-3.7,0-6.6,3-6.6,6.6c0,3.7,3,6.6,6.6,6.6c3.7,0,6.6-3,6.6-6.6
				C350.3,166,347.3,163.1,343.7,163.1L343.7,163.1z"/>
		</g>
		<g>
			<path class="st2" d="M246.6,228.9c-9,0-16.2-7.3-16.2-16.2c0-9,7.3-16.2,16.2-16.2c9,0,16.2,7.3,16.2,16.2
				C262.9,221.6,255.6,228.9,246.6,228.9z"/>
			<path class="st3" d="M246.6,196.9c8.7,0,15.7,7.1,15.7,15.7c0,8.7-7.1,15.7-15.7,15.7s-15.7-7.1-15.7-15.7
				C230.9,204,237.9,196.9,246.6,196.9 M246.6,195.9c-9.2,0-16.7,7.5-16.7,16.7c0,9.2,7.5,16.7,16.7,16.7s16.7-7.5,16.7-16.7
				C263.4,203.4,255.9,195.9,246.6,195.9L246.6,195.9z"/>
		</g>
		<g>
			<polygon class="st2" points="267.6,200.8 267.4,196 270.8,192.3 290.1,189.8 293.3,192.3 293.4,196.7 291.9,198.7 269.2,201.7 
							"/>
			<path class="st3" d="M289.9,190.3l2.9,2.2l0.1,4l-1.3,1.7l-22.3,3l-1.2-0.7l-0.2-4.3l3.2-3.5L289.9,190.3 M290.2,189.2l-19.7,2.6
				l-3.7,4.1l0.2,5.3l2,1.1l23-3.1l1.8-2.3l-0.2-4.9L290.2,189.2L290.2,189.2z"/>
		</g>
		<g>
			<polygon class="st2" points="295.8,196.9 295.7,192.1 299,188.5 318.3,185.8 321.3,188.4 321.4,192.7 319.9,194.6 297.3,197.7 
							"/>
			<path class="st3" d="M318.1,186.3l2.7,2.3l0.1,3.9l-1.3,1.6l-22.2,3.1l-1.1-0.6l-0.1-4.3l3-3.3L318.1,186.3 M318.4,185.3
				l-19.7,2.8l-3.5,3.9l0.1,5.3l2,1.1l22.9-3.2l1.7-2.2l-0.1-4.7L318.4,185.3L318.4,185.3z"/>
		</g>
		<g>
			<polygon class="st2" points="324.1,192.9 324,188.3 327.4,184.6 346.4,181.9 349.6,184.7 349.7,188.8 348.1,190.6 325.6,193.8 
							"/>
			<path class="st3" d="M346.2,182.4l2.8,2.5l0.1,3.8l-1.3,1.5l-22.2,3.1l-1.1-0.7l-0.1-4.2l3.1-3.4L346.2,182.4 M346.6,181.4
				l-19.4,2.8l-3.6,4l0.1,5.1l1.9,1.1l22.9-3.2l1.8-2.1l-0.1-4.6L346.6,181.4L346.6,181.4z"/>
		</g>
	</g>
	<use xlink:href="#SVGID_3_"  style="overflow:visible;fill:none;stroke:#C9C9C9;stroke-width:5;stroke-miterlimit:10;"/>
</g>
<g>
	<defs>
		<path id="SVGID_5_" d="M256,255H124c-6.6,0-12-5.4-12-12V32c0-6.6,5.4-12,12-12h132c6.6,0,12,5.4,12,12v211
			C268,249.6,262.6,255,256,255z"/>
	</defs>
	<use xlink:href="#SVGID_5_"  style="overflow:visible;fill:#FFFFFF;"/>
	<clipPath id="SVGID_6_">
		<use xlink:href="#SVGID_5_"  style="overflow:visible;"/>
	</clipPath>
	<g class="st5">
		<g>
			<path class="st2" d="M133.7,254.7c-13.2,0-24-10.8-24-24s10.8-24,24-24c10.1,0,19.2,6.4,22.6,16l0.3,0.8l111.7-16.2v29.3l-35,5.1
				l5.5-14.8l-82.2,11.1l-0.2,0.6C153.1,248.2,144,254.7,133.7,254.7z"/>
			<path class="st3" d="M133.7,207.7c9.7,0,18.4,6.1,21.7,15.3l0.5,1.5l1.6-0.2l109.8-15.9v27.2l-32.5,4.7l4.3-11.7l1.1-3.1L237,226
				l-79.9,10.8l-1.2,0.2l-0.4,1.2c-3.2,9.4-11.9,15.6-21.8,15.6c-12.7,0-23-10.3-23-23S121,207.7,133.7,207.7 M133.7,205.7
				c-13.8,0-25,11.2-25,25c0,13.8,11.2,25,25,25c11,0,20.4-7.1,23.7-17l79.9-10.8l-5.5,14.9l37.5-5.5v-31.3l-112.1,16.2
				C153.8,212.6,144.6,205.7,133.7,205.7L133.7,205.7z"/>
		</g>
		<g>
			<polygon class="st2" points="159.4,240.9 234,230.9 228.7,244.7 152.1,255.5 			"/>
			<path class="st3" d="M233.2,231.5l-4.9,12.7L153,254.9l6.7-13.5L233.2,231.5 M234.7,230.3l-75.6,10.2l-7.8,15.6l77.8-10.9
				L234.7,230.3L234.7,230.3z"/>
		</g>
		<g>
			<circle class="st2" cx="230.1" cy="180.2" r="7.7"/>
			<path class="st3" d="M230.1,173c4,0,7.2,3.2,7.2,7.2s-3.2,7.2-7.2,7.2s-7.2-3.2-7.2-7.2S226.1,173,230.1,173 M230.1,172
				c-4.5,0-8.2,3.7-8.2,8.2s3.7,8.2,8.2,8.2s8.2-3.7,8.2-8.2S234.6,172,230.1,172L230.1,172z"/>
		</g>
		<g>
			<circle class="st2" cx="254" cy="177.4" r="7.7"/>
			<path class="st3" d="M254,170.1c4,0,7.2,3.2,7.2,7.2s-3.2,7.2-7.2,7.2s-7.2-3.2-7.2-7.2S250,170.1,254,170.1 M254,169.1
				c-4.5,0-8.2,3.7-8.2,8.2s3.7,8.2,8.2,8.2s8.2-3.7,8.2-8.2S258.5,169.1,254,169.1L254,169.1z"/>
		</g>
		<g>
			<path class="st2" d="M133.8,250.8c-11.1,0-20.2-9.1-20.2-20.2s9.1-20.2,20.2-20.2s20.2,9.1,20.2,20.2S145,250.8,133.8,250.8z"/>
			<path class="st3" d="M133.8,210.9c10.9,0,19.7,8.8,19.7,19.7s-8.8,19.7-19.7,19.7c-10.9,0-19.7-8.8-19.7-19.7
				S122.9,210.9,133.8,210.9 M133.8,209.9c-11.4,0-20.7,9.3-20.7,20.7c0,11.4,9.3,20.7,20.7,20.7s20.7-9.3,20.7-20.7
				C154.5,219.1,145.3,209.9,133.8,209.9L133.8,209.9z"/>
		</g>
		<g>
			<polygon class="st2" points="159.6,215.9 159.4,209.9 163.7,205.2 187.6,202.1 191.7,205.2 191.9,210.9 189.9,213.3 161.8,217.1 
							"/>
			<path class="st3" d="M187.5,202.6l3.8,2.9l0.2,5.2l-1.7,2.2l-27.8,3.7l-1.7-1l-0.2-5.5l4-4.4L187.5,202.6 M187.8,201.6l-24.3,3.2
				l-4.6,5l0.3,6.5l2.5,1.4l28.5-3.8l2.2-2.8l-0.2-6L187.8,201.6L187.8,201.6z"/>
		</g>
		<g>
			<polygon class="st2" points="194.6,211.1 194.5,205.1 198.6,200.5 222.5,197.2 226.4,200.5 226.5,205.9 224.6,208.3 196.6,212.2 
							"/>
			<path class="st3" d="M222.4,197.7l3.5,3l0.1,5l-1.7,2.1l-27.6,3.8l-1.6-0.9l-0.1-5.5l3.9-4.3L222.4,197.7 M222.7,196.6l-24.3,3.4
				l-4.4,4.8l0.1,6.5l2.4,1.3l28.3-3.9l2.1-2.7l-0.1-5.9L222.7,196.6L222.7,196.6z"/>
		</g>
		<g>
			<polygon class="st2" points="229.6,206.2 229.5,200.3 233.7,195.7 257.4,192.3 261.4,195.8 261.5,201.1 259.5,203.4 231.5,207.4 
							"/>
			<path class="st3" d="M257.2,192.9l3.7,3.2l0.1,4.8l-1.7,2l-27.6,3.9l-1.5-0.9l-0.1-5.4l4-4.4L257.2,192.9 M257.5,191.8l-24.1,3.4
				l-4.5,4.9l0.1,6.3l2.3,1.4l28.3-4l2.2-2.6l-0.1-5.7L257.5,191.8L257.5,191.8z"/>
		</g>
	</g>
	<use xlink:href="#SVGID_5_"  style="overflow:visible;fill:none;stroke:#C9C9C9;stroke-width:5;stroke-miterlimit:10;"/>
</g>
</svg>
