<svg xmlns="http://www.w3.org/2000/svg" xmlns:xlink="http://www.w3.org/1999/xlink" viewBox="0 0 375 663"><defs><style>.cls-1{fill:#9cd4ca;}.cls-2{clip-path:url(#clip-path);}.cls-3{fill:#ffea6a;}.cls-4{fill:#4f1c4e;}.cls-5{fill:#f9801c;stroke:#f9f9f9;stroke-miterlimit:10;}.cls-6{fill:#ffa33e;}.cls-6,.cls-8{opacity:0.43;}.cls-7{fill:#d11111;}.cls-8{fill:#fff;}</style><clipPath id="clip-path"><rect class="cls-1" y="31" width="375" height="632" rx="12" ry="12"/></clipPath></defs><title>Recurso 1</title><g id="Capa_2" data-name="Capa 2"><g id="Capa_1-2" data-name="Capa 1"><rect class="cls-1" y="31" width="375" height="632" rx="12" ry="12"/><g class="cls-2"><rect class="cls-3" x="78" width="219" height="120" rx="12" ry="12"/></g><circle class="cls-4" cx="187.5" cy="317" r="131.5"/><circle class="cls-5" cx="187.5" cy="317" r="74.02"/><circle class="cls-6" cx="177.05" cy="314.39" r="55.74"/><polygon class="cls-7" points="154.6 357.06 156.12 349.1 150.42 343.33 158.47 342.31 162.19 335.11 165.64 342.45 173.64 343.77 167.73 349.32 168.95 357.34 161.84 353.43 154.6 357.06"/><polygon class="cls-7" points="212.07 357.06 213.59 349.1 207.9 343.33 215.94 342.31 219.67 335.11 223.12 342.45 231.12 343.77 225.21 349.32 226.43 357.34 219.32 353.43 212.07 357.06"/><polygon class="cls-7" points="154.6 306.55 156.12 298.59 150.42 292.82 158.47 291.8 162.19 284.6 165.64 291.94 173.64 293.26 167.73 298.81 168.95 306.83 161.84 302.92 154.6 306.55"/><polygon class="cls-7" points="212.07 306.55 213.59 298.59 207.9 292.82 215.94 291.8 219.67 284.6 223.12 291.94 231.12 293.26 225.21 298.81 226.43 306.83 219.32 302.92 212.07 306.55"/><circle class="cls-6" cx="164.86" cy="311.77" r="32.22"/><circle class="cls-8" cx="150.92" cy="310.03" r="15.68"/></g></g></svg>